<svg width="36" height="36" viewBox="0 0 36 36" fill="none" xmlns="http://www.w3.org/2000/svg">
<path d="M18 34.5C20.9837 34.5 23.8452 33.3147 25.955 31.205C28.0648 29.0952 29.25 26.2337 29.25 23.25C29.25 21.951 28.905 20.7045 28.5 19.545C25.9995 22.0155 24.1005 23.25 22.8 23.25C28.7925 12.75 25.5 8.25 16.5 2.25C17.25 9.75 12.306 13.161 10.293 15.0555C8.65101 16.6 7.51087 18.6022 7.02044 20.8025C6.53001 23.0028 6.71191 25.2996 7.54254 27.3953C8.37317 29.491 9.81423 31.2887 11.6789 32.5556C13.5435 33.8224 15.7457 34.4998 18 34.5ZM19.065 7.8525C23.9265 11.9775 23.9505 15.183 20.1945 21.7635C19.053 23.763 20.4975 26.25 22.8 26.25C23.832 26.25 24.876 25.95 25.9785 25.3575C25.6517 26.592 25.0428 27.7337 24.1998 28.6929C23.3567 29.652 22.3025 30.4023 21.1201 30.8848C19.9378 31.3673 18.6596 31.5687 17.3862 31.4731C16.1127 31.3776 14.8789 30.9878 13.7817 30.3344C12.6846 29.6809 11.7541 28.7817 11.0635 27.7075C10.373 26.6334 9.94123 25.4136 9.80225 24.1441C9.66326 22.8747 9.82086 21.5904 10.2626 20.3922C10.7044 19.1941 11.4183 18.1149 12.348 17.2395C12.537 17.0625 13.4955 16.212 13.5375 16.1745C14.1735 15.6045 14.697 15.099 15.2145 14.5455C17.0595 12.5685 18.3855 10.3755 19.0635 7.8525H19.065Z" fill="white"/>
</svg>
