<svg width="36" height="36" viewBox="0 0 36 36" fill="none" xmlns="http://www.w3.org/2000/svg">
<path d="M3.31963 21.0901C2.88825 19.0527 2.88825 16.9475 3.31963 14.9101C4.98463 15.1051 6.43963 14.5546 6.91363 13.4086C7.38913 12.2611 6.75163 10.8436 5.43463 9.80413C6.57019 8.05862 8.05862 6.57019 9.80413 5.43463C10.8421 6.75013 12.2611 7.38913 13.4086 6.91363C14.5561 6.43813 15.1066 4.98463 14.9101 3.31963C16.9475 2.88825 19.0527 2.88825 21.0901 3.31963C20.8951 4.98463 21.4456 6.43963 22.5916 6.91363C23.7391 7.38913 25.1566 6.75163 26.1961 5.43463C27.9416 6.57019 29.4301 8.05862 30.5656 9.80413C29.2501 10.8421 28.6111 12.2611 29.0866 13.4086C29.5621 14.5561 31.0156 15.1066 32.6806 14.9101C33.112 16.9475 33.112 19.0527 32.6806 21.0901C31.0156 20.8951 29.5606 21.4456 29.0866 22.5916C28.6111 23.7391 29.2486 25.1566 30.5656 26.1961C29.4301 27.9416 27.9416 29.4301 26.1961 30.5656C25.1581 29.2501 23.7391 28.6111 22.5916 29.0866C21.4441 29.5621 20.8936 31.0156 21.0901 32.6806C19.0527 33.112 16.9475 33.112 14.9101 32.6806C15.1051 31.0156 14.5546 29.5606 13.4086 29.0866C12.2611 28.6111 10.8436 29.2486 9.80413 30.5656C8.05862 29.4301 6.57019 27.9416 5.43463 26.1961C6.75013 25.1581 7.38913 23.7391 6.91363 22.5916C6.43813 21.4441 4.98463 20.8936 3.31963 21.0901ZM6.00013 18.3151C7.65013 18.7726 9.01063 19.8181 9.68563 21.4441C10.3591 23.0716 10.1356 24.7741 9.29263 26.2621C9.43663 26.4151 9.58513 26.5636 9.73813 26.7076C11.2276 25.8646 12.9286 25.6426 14.5561 26.3146C16.1821 26.9896 17.2276 28.3501 17.6851 30.0001C17.8951 30.0061 18.1051 30.0061 18.3151 30.0001C18.7726 28.3501 19.8181 26.9896 21.4441 26.3146C23.0716 25.6411 24.7741 25.8646 26.2621 26.7076C26.4151 26.5636 26.5636 26.4151 26.7076 26.2621C25.8646 24.7726 25.6426 23.0716 26.3146 21.4441C26.9896 19.8181 28.3501 18.7726 30.0001 18.3151C30.0061 18.1051 30.0061 17.8951 30.0001 17.6851C28.3501 17.2276 26.9896 16.1821 26.3146 14.5561C25.6411 12.9286 25.8646 11.2261 26.7076 9.73813C26.5631 9.58573 26.4145 9.43718 26.2621 9.29263C24.7726 10.1356 23.0716 10.3576 21.4441 9.68563C19.8181 9.01063 18.7726 7.65013 18.3151 6.00013C18.1052 5.99457 17.8951 5.99457 17.6851 6.00013C17.2276 7.65013 16.1821 9.01063 14.5561 9.68563C12.9286 10.3591 11.2261 10.1356 9.73813 9.29263C9.58513 9.43663 9.43663 9.58513 9.29263 9.73813C10.1356 11.2276 10.3576 12.9286 9.68563 14.5561C9.01063 16.1821 7.65013 17.2276 6.00013 17.6851C5.99413 17.8951 5.99413 18.1051 6.00013 18.3151ZM18.0001 22.5001C16.8067 22.5001 15.6621 22.026 14.8182 21.1821C13.9742 20.3382 13.5001 19.1936 13.5001 18.0001C13.5001 16.8067 13.9742 15.6621 14.8182 14.8182C15.6621 13.9742 16.8067 13.5001 18.0001 13.5001C19.1936 13.5001 20.3382 13.9742 21.1821 14.8182C22.026 15.6621 22.5001 16.8067 22.5001 18.0001C22.5001 19.1936 22.026 20.3382 21.1821 21.1821C20.3382 22.026 19.1936 22.5001 18.0001 22.5001ZM18.0001 19.5001C18.398 19.5001 18.7795 19.3421 19.0608 19.0608C19.3421 18.7795 19.5001 18.398 19.5001 18.0001C19.5001 17.6023 19.3421 17.2208 19.0608 16.9395C18.7795 16.6582 18.398 16.5001 18.0001 16.5001C17.6023 16.5001 17.2208 16.6582 16.9395 16.9395C16.6582 17.2208 16.5001 17.6023 16.5001 18.0001C16.5001 18.398 16.6582 18.7795 16.9395 19.0608C17.2208 19.3421 17.6023 19.5001 18.0001 19.5001Z" fill="#4E558E"/>
<path d="M3.31963 21.0901C2.88825 19.0527 2.88825 16.9475 3.31963 14.9101C4.98463 15.1051 6.43963 14.5546 6.91363 13.4086C7.38913 12.2611 6.75163 10.8436 5.43463 9.80413C6.57019 8.05862 8.05862 6.57019 9.80413 5.43463C10.8421 6.75013 12.2611 7.38913 13.4086 6.91363C14.5561 6.43813 15.1066 4.98463 14.9101 3.31963C16.9475 2.88825 19.0527 2.88825 21.0901 3.31963C20.8951 4.98463 21.4456 6.43963 22.5916 6.91363C23.7391 7.38913 25.1566 6.75163 26.1961 5.43463C27.9416 6.57019 29.4301 8.05862 30.5656 9.80413C29.2501 10.8421 28.6111 12.2611 29.0866 13.4086C29.5621 14.5561 31.0156 15.1066 32.6806 14.9101C33.112 16.9475 33.112 19.0527 32.6806 21.0901C31.0156 20.8951 29.5606 21.4456 29.0866 22.5916C28.6111 23.7391 29.2486 25.1566 30.5656 26.1961C29.4301 27.9416 27.9416 29.4301 26.1961 30.5656C25.1581 29.2501 23.7391 28.6111 22.5916 29.0866C21.4441 29.5621 20.8936 31.0156 21.0901 32.6806C19.0527 33.112 16.9475 33.112 14.9101 32.6806C15.1051 31.0156 14.5546 29.5606 13.4086 29.0866C12.2611 28.6111 10.8436 29.2486 9.80413 30.5656C8.05862 29.4301 6.57019 27.9416 5.43463 26.1961C6.75013 25.1581 7.38913 23.7391 6.91363 22.5916C6.43813 21.4441 4.98463 20.8936 3.31963 21.0901ZM6.00013 18.3151C7.65013 18.7726 9.01063 19.8181 9.68563 21.4441C10.3591 23.0716 10.1356 24.7741 9.29263 26.2621C9.43663 26.4151 9.58513 26.5636 9.73813 26.7076C11.2276 25.8646 12.9286 25.6426 14.5561 26.3146C16.1821 26.9896 17.2276 28.3501 17.6851 30.0001C17.8951 30.0061 18.1051 30.0061 18.3151 30.0001C18.7726 28.3501 19.8181 26.9896 21.4441 26.3146C23.0716 25.6411 24.7741 25.8646 26.2621 26.7076C26.4151 26.5636 26.5636 26.4151 26.7076 26.2621C25.8646 24.7726 25.6426 23.0716 26.3146 21.4441C26.9896 19.8181 28.3501 18.7726 30.0001 18.3151C30.0061 18.1051 30.0061 17.8951 30.0001 17.6851C28.3501 17.2276 26.9896 16.1821 26.3146 14.5561C25.6411 12.9286 25.8646 11.2261 26.7076 9.73813C26.5631 9.58573 26.4145 9.43718 26.2621 9.29263C24.7726 10.1356 23.0716 10.3576 21.4441 9.68563C19.8181 9.01063 18.7726 7.65013 18.3151 6.00013C18.1052 5.99457 17.8951 5.99457 17.6851 6.00013C17.2276 7.65013 16.1821 9.01063 14.5561 9.68563C12.9286 10.3591 11.2261 10.1356 9.73813 9.29263C9.58513 9.43663 9.43663 9.58513 9.29263 9.73813C10.1356 11.2276 10.3576 12.9286 9.68563 14.5561C9.01063 16.1821 7.65013 17.2276 6.00013 17.6851C5.99413 17.8951 5.99413 18.1051 6.00013 18.3151ZM18.0001 22.5001C16.8067 22.5001 15.6621 22.026 14.8182 21.1821C13.9742 20.3382 13.5001 19.1936 13.5001 18.0001C13.5001 16.8067 13.9742 15.6621 14.8182 14.8182C15.6621 13.9742 16.8067 13.5001 18.0001 13.5001C19.1936 13.5001 20.3382 13.9742 21.1821 14.8182C22.026 15.6621 22.5001 16.8067 22.5001 18.0001C22.5001 19.1936 22.026 20.3382 21.1821 21.1821C20.3382 22.026 19.1936 22.5001 18.0001 22.5001ZM18.0001 19.5001C18.398 19.5001 18.7795 19.3421 19.0608 19.0608C19.3421 18.7795 19.5001 18.398 19.5001 18.0001C19.5001 17.6023 19.3421 17.2208 19.0608 16.9395C18.7795 16.6582 18.398 16.5001 18.0001 16.5001C17.6023 16.5001 17.2208 16.6582 16.9395 16.9395C16.6582 17.2208 16.5001 17.6023 16.5001 18.0001C16.5001 18.398 16.6582 18.7795 16.9395 19.0608C17.2208 19.3421 17.6023 19.5001 18.0001 19.5001Z" fill="#3C55A5"/>
</svg>
