<svg width="36" height="36" viewBox="0 0 36 36" fill="none" xmlns="http://www.w3.org/2000/svg">
<path d="M28.5 1.5C29.328 1.5 30 2.172 30 3V33C30 33.828 29.328 34.5 28.5 34.5H7.5C6.672 34.5 6 33.828 6 33V3C6 2.172 6.672 1.5 7.5 1.5H28.5ZM27 18H9V31.5H27V18ZM15 21V27H12V21H15ZM27 4.5H9V15H27V4.5ZM15 7.5V12H12V7.5H15Z" fill="#4E558E"/>
<path d="M28.5 1.5C29.328 1.5 30 2.172 30 3V33C30 33.828 29.328 34.5 28.5 34.5H7.5C6.672 34.5 6 33.828 6 33V3C6 2.172 6.672 1.5 7.5 1.5H28.5ZM27 18H9V31.5H27V18ZM15 21V27H12V21H15ZM27 4.5H9V15H27V4.5ZM15 7.5V12H12V7.5H15Z" fill="#3C55A5"/>
</svg>
