<svg width="36" height="36" viewBox="0 0 36 36" fill="none" xmlns="http://www.w3.org/2000/svg">
<path d="M6 28.5001H30V21.0001H33V30.0001C33 30.3979 32.842 30.7795 32.5607 31.0608C32.2794 31.3421 31.8978 31.5001 31.5 31.5001H4.5C4.10218 31.5001 3.72064 31.3421 3.43934 31.0608C3.15804 30.7795 3 30.3979 3 30.0001V21.0001H6V28.5001ZM24.258 10.5001L18.333 4.5751L20.454 2.4541L30 12.0001L20.454 21.5461L18.333 19.4251L24.258 13.5001H7.5V10.5001H24.258Z" fill="#4E558E"/>
<path d="M6 28.5001H30V21.0001H33V30.0001C33 30.3979 32.842 30.7795 32.5607 31.0608C32.2794 31.3421 31.8978 31.5001 31.5 31.5001H4.5C4.10218 31.5001 3.72064 31.3421 3.43934 31.0608C3.15804 30.7795 3 30.3979 3 30.0001V21.0001H6V28.5001ZM24.258 10.5001L18.333 4.5751L20.454 2.4541L30 12.0001L20.454 21.5461L18.333 19.4251L24.258 13.5001H7.5V10.5001H24.258Z" fill="#3C55A5"/>
</svg>
