<svg width="30" height="30" viewBox="0 0 30 30" fill="none" xmlns="http://www.w3.org/2000/svg">
<g clip-path="url(#clip0_29913_1504)">
<path d="M7.67944 16.8032C7.69256 17.0792 7.48344 17.3104 7.22106 17.3101H2.16502C1.73896 17.3108 1.36862 17.0022 1.27115 16.5654C1.21147 16.2714 1.27956 15.9647 1.4568 15.729C2.26564 14.5993 3.33882 13.7098 4.57156 13.1474C1.96401 10.6435 2.90795 6.10562 6.27066 4.97924C8.94545 4.0833 11.7497 5.90668 12.1877 8.82657C12.218 9.03711 12.1118 9.24322 11.9276 9.33108C9.33126 10.5952 7.66815 13.3321 7.6657 16.3445C7.6657 16.499 7.6657 16.6511 7.67944 16.8032ZM28.5362 15.7278C27.7292 14.5994 26.6585 13.7104 25.4283 13.1474C28.0359 10.6435 27.0919 6.10562 23.7292 4.97924C21.0544 4.0833 18.2501 5.90668 17.8122 8.82657C17.7818 9.03711 17.8881 9.24322 18.0723 9.33108C20.6686 10.5952 22.3317 13.3321 22.3342 16.3445C22.3342 16.499 22.3342 16.6511 22.3204 16.8032C22.3073 17.0792 22.5164 17.3104 22.7788 17.3101H27.8349C28.2609 17.3108 28.6313 17.0022 28.7287 16.5654C28.7888 16.2708 28.7202 15.9634 28.5419 15.7278H28.5362ZM18.337 20.9393C21.6988 18.2278 21.0128 12.7002 17.1023 10.9897C13.1917 9.27924 8.98941 12.6687 9.5382 17.0907C9.72773 18.618 10.4869 20.0028 11.648 20.9393C10.0282 21.6785 8.67561 22.9444 7.78831 24.5517C7.43544 25.1954 7.87653 26 8.58227 26H21.4174C22.1231 26.0002 22.5644 25.1957 22.2117 24.5519C22.2116 24.5518 22.2117 24.5519 22.2117 24.5519C21.3225 22.9435 19.9673 21.6773 18.345 20.9393H18.337Z" fill="#7379A6"/>
<path d="M7.67944 16.8032C7.69256 17.0792 7.48344 17.3104 7.22106 17.3101H2.16502C1.73896 17.3108 1.36862 17.0022 1.27115 16.5654C1.21147 16.2714 1.27956 15.9647 1.4568 15.729C2.26564 14.5993 3.33882 13.7098 4.57156 13.1474C1.96401 10.6435 2.90795 6.10562 6.27066 4.97924C8.94545 4.0833 11.7497 5.90668 12.1877 8.82657C12.218 9.03711 12.1118 9.24322 11.9276 9.33108C9.33126 10.5952 7.66815 13.3321 7.6657 16.3445C7.6657 16.499 7.6657 16.6511 7.67944 16.8032ZM28.5362 15.7278C27.7292 14.5994 26.6585 13.7104 25.4283 13.1474C28.0359 10.6435 27.0919 6.10562 23.7292 4.97924C21.0544 4.0833 18.2501 5.90668 17.8122 8.82657C17.7818 9.03711 17.8881 9.24322 18.0723 9.33108C20.6686 10.5952 22.3317 13.3321 22.3342 16.3445C22.3342 16.499 22.3342 16.6511 22.3204 16.8032C22.3073 17.0792 22.5164 17.3104 22.7788 17.3101H27.8349C28.2609 17.3108 28.6313 17.0022 28.7287 16.5654C28.7888 16.2708 28.7202 15.9634 28.5419 15.7278H28.5362ZM18.337 20.9393C21.6988 18.2278 21.0128 12.7002 17.1023 10.9897C13.1917 9.27924 8.98941 12.6687 9.5382 17.0907C9.72773 18.618 10.4869 20.0028 11.648 20.9393C10.0282 21.6785 8.67561 22.9444 7.78831 24.5517C7.43544 25.1954 7.87653 26 8.58227 26H21.4174C22.1231 26.0002 22.5644 25.1957 22.2117 24.5519C22.2116 24.5518 22.2117 24.5519 22.2117 24.5519C21.3225 22.9435 19.9673 21.6773 18.345 20.9393H18.337Z" fill="#3C6BF1"/>
</g>
<defs>
<clipPath id="clip0_29913_1504">
<rect width="30" height="30" fill="white"/>
</clipPath>
</defs>
</svg>
