<svg width="20" height="20" viewBox="0 0 20 20" fill="none" xmlns="http://www.w3.org/2000/svg">
<path d="M15.0278 13.8482L18.5945 17.4157L17.4162 18.5948L13.8495 15.0273C12.521 16.0913 10.869 16.6696 9.16699 16.6665C7.76978 16.6671 6.40019 16.2773 5.21268 15.5411C4.02516 14.8049 3.06697 13.7516 2.44616 12.4998H7.50033L6.41366 14.3107C7.26035 14.7645 8.20635 15.0013 9.16699 14.9998C10.684 15.0022 12.1419 14.4116 13.2295 13.354L13.3545 13.229C14.4121 12.1414 15.0027 10.6835 15.0003 9.1665C15.0003 8.58734 14.9162 8.02817 14.7587 7.49984H16.4812C16.6028 8.03567 16.667 8.59401 16.667 9.1665C16.6699 10.8682 16.0916 12.5199 15.0278 13.8482ZM15.8878 5.83317H10.8337L11.9203 4.02234C11.0736 3.56853 10.1276 3.33174 9.16699 3.33317C5.94366 3.33317 3.33366 5.94317 3.33366 9.1665C3.33366 9.74567 3.41783 10.3048 3.57533 10.8332H1.85283C1.72903 10.2863 1.6667 9.72725 1.66699 9.1665C1.66699 5.02234 5.02283 1.6665 9.16699 1.6665C10.5642 1.66589 11.9338 2.05566 13.1213 2.79188C14.3088 3.52809 15.267 4.58146 15.8878 5.83317Z" fill="#7379A6"/>
<path d="M15.0278 13.8482L18.5945 17.4157L17.4162 18.5948L13.8495 15.0273C12.521 16.0913 10.869 16.6696 9.16699 16.6665C7.76978 16.6671 6.40019 16.2773 5.21268 15.5411C4.02516 14.8049 3.06697 13.7516 2.44616 12.4998H7.50033L6.41366 14.3107C7.26035 14.7645 8.20635 15.0013 9.16699 14.9998C10.684 15.0022 12.1419 14.4116 13.2295 13.354L13.3545 13.229C14.4121 12.1414 15.0027 10.6835 15.0003 9.1665C15.0003 8.58734 14.9162 8.02817 14.7587 7.49984H16.4812C16.6028 8.03567 16.667 8.59401 16.667 9.1665C16.6699 10.8682 16.0916 12.5199 15.0278 13.8482ZM15.8878 5.83317H10.8337L11.9203 4.02234C11.0736 3.56853 10.1276 3.33174 9.16699 3.33317C5.94366 3.33317 3.33366 5.94317 3.33366 9.1665C3.33366 9.74567 3.41783 10.3048 3.57533 10.8332H1.85283C1.72903 10.2863 1.6667 9.72725 1.66699 9.1665C1.66699 5.02234 5.02283 1.6665 9.16699 1.6665C10.5642 1.66589 11.9338 2.05566 13.1213 2.79188C14.3088 3.52809 15.267 4.58146 15.8878 5.83317Z" fill="#3C6BF1"/>
</svg>
