<svg width="36" height="36" viewBox="0 0 36 36" fill="none" xmlns="http://www.w3.org/2000/svg">
<path d="M31.5 28.5H34.5V31.5H1.5V28.5H4.5V6C4.5 5.60218 4.65804 5.22064 4.93934 4.93934C5.22064 4.65804 5.60218 4.5 6 4.5H21C21.3978 4.5 21.7794 4.65804 22.0607 4.93934C22.342 5.22064 22.5 5.60218 22.5 6V28.5H28.5V16.5H25.5V13.5H30C30.3978 13.5 30.7794 13.658 31.0607 13.9393C31.342 14.2206 31.5 14.6022 31.5 15V28.5ZM7.5 7.5V28.5H19.5V7.5H7.5ZM10.5 16.5H16.5V19.5H10.5V16.5ZM10.5 10.5H16.5V13.5H10.5V10.5Z" fill="#4E558E"/>
<path d="M31.5 28.5H34.5V31.5H1.5V28.5H4.5V6C4.5 5.60218 4.65804 5.22064 4.93934 4.93934C5.22064 4.65804 5.60218 4.5 6 4.5H21C21.3978 4.5 21.7794 4.65804 22.0607 4.93934C22.342 5.22064 22.5 5.60218 22.5 6V28.5H28.5V16.5H25.5V13.5H30C30.3978 13.5 30.7794 13.658 31.0607 13.9393C31.342 14.2206 31.5 14.6022 31.5 15V28.5ZM7.5 7.5V28.5H19.5V7.5H7.5ZM10.5 16.5H16.5V19.5H10.5V16.5ZM10.5 10.5H16.5V13.5H10.5V10.5Z" fill="#3C55A5"/>
</svg>
