<svg width="36" height="36" viewBox="0 0 36 36" fill="none" xmlns="http://www.w3.org/2000/svg">
<path d="M31.25 28.5V28.75H31.5H34.25V31.25H1.75V28.75H4.5H4.75V28.5V6C4.75 5.66848 4.8817 5.35054 5.11612 5.11612C5.35054 4.8817 5.66848 4.75 6 4.75H21C21.3315 4.75 21.6495 4.8817 21.8839 5.11612C22.1183 5.35054 22.25 5.66848 22.25 6V28.5V28.75H22.5H28.5H28.75V28.5V16.5V16.25H28.5H25.75V13.75H30C30.3315 13.75 30.6495 13.8817 30.8839 14.1161C31.1183 14.3505 31.25 14.6685 31.25 15V28.5ZM7.5 7.25H7.25V7.5V28.5V28.75H7.5H19.5H19.75V28.5V7.5V7.25H19.5H7.5ZM10.75 16.75H16.25V19.25H10.75V16.75ZM10.75 10.75H16.25V13.25H10.75V10.75Z" fill="#E9EAF1"/>
<path d="M31.25 28.5V28.75H31.5H34.25V31.25H1.75V28.75H4.5H4.75V28.5V6C4.75 5.66848 4.8817 5.35054 5.11612 5.11612C5.35054 4.8817 5.66848 4.75 6 4.75H21C21.3315 4.75 21.6495 4.8817 21.8839 5.11612C22.1183 5.35054 22.25 5.66848 22.25 6V28.5V28.75H22.5H28.5H28.75V28.5V16.5V16.25H28.5H25.75V13.75H30C30.3315 13.75 30.6495 13.8817 30.8839 14.1161C31.1183 14.3505 31.25 14.6685 31.25 15V28.5ZM7.5 7.25H7.25V7.5V28.5V28.75H7.5H19.5H19.75V28.5V7.5V7.25H19.5H7.5ZM10.75 16.75H16.25V19.25H10.75V16.75ZM10.75 10.75H16.25V13.25H10.75V10.75Z" fill="#E9ECF7"/>
<path d="M31.25 28.5V28.75H31.5H34.25V31.25H1.75V28.75H4.5H4.75V28.5V6C4.75 5.66848 4.8817 5.35054 5.11612 5.11612C5.35054 4.8817 5.66848 4.75 6 4.75H21C21.3315 4.75 21.6495 4.8817 21.8839 5.11612C22.1183 5.35054 22.25 5.66848 22.25 6V28.5V28.75H22.5H28.5H28.75V28.5V16.5V16.25H28.5H25.75V13.75H30C30.3315 13.75 30.6495 13.8817 30.8839 14.1161C31.1183 14.3505 31.25 14.6685 31.25 15V28.5ZM7.5 7.25H7.25V7.5V28.5V28.75H7.5H19.5H19.75V28.5V7.5V7.25H19.5H7.5ZM10.75 16.75H16.25V19.25H10.75V16.75ZM10.75 10.75H16.25V13.25H10.75V10.75Z" stroke="#4E558E" stroke-width="0.5"/>
<path d="M31.25 28.5V28.75H31.5H34.25V31.25H1.75V28.75H4.5H4.75V28.5V6C4.75 5.66848 4.8817 5.35054 5.11612 5.11612C5.35054 4.8817 5.66848 4.75 6 4.75H21C21.3315 4.75 21.6495 4.8817 21.8839 5.11612C22.1183 5.35054 22.25 5.66848 22.25 6V28.5V28.75H22.5H28.5H28.75V28.5V16.5V16.25H28.5H25.75V13.75H30C30.3315 13.75 30.6495 13.8817 30.8839 14.1161C31.1183 14.3505 31.25 14.6685 31.25 15V28.5ZM7.5 7.25H7.25V7.5V28.5V28.75H7.5H19.5H19.75V28.5V7.5V7.25H19.5H7.5ZM10.75 16.75H16.25V19.25H10.75V16.75ZM10.75 10.75H16.25V13.25H10.75V10.75Z" stroke="#3C55A5" stroke-width="0.5"/>
</svg>
