<svg width="36" height="36" viewBox="0 0 36 36" fill="none" xmlns="http://www.w3.org/2000/svg">
<path d="M19.4998 12V24C19.4998 25.1935 19.0257 26.3381 18.1817 27.182C17.3378 28.0259 16.1932 28.5 14.9998 28.5H11.7448C11.3909 29.5012 10.6945 30.3451 9.77855 30.8825C8.86263 31.4199 7.78622 31.6162 6.73957 31.4367C5.69292 31.2572 4.74344 30.7134 4.05895 29.9016C3.37445 29.0897 2.99902 28.0619 2.99902 27C2.99902 25.9381 3.37445 24.9103 4.05895 24.0984C4.74344 23.2866 5.69292 22.7428 6.73957 22.5633C7.78622 22.3838 8.86263 22.5801 9.77855 23.1175C10.6945 23.6549 11.3909 24.4988 11.7448 25.5H14.9998C15.3976 25.5 15.7791 25.342 16.0604 25.0607C16.3417 24.7794 16.4998 24.3978 16.4998 24V12C16.4998 10.8065 16.9739 9.66193 17.8178 8.81802C18.6617 7.97411 19.8063 7.5 20.9998 7.5H25.4998V3L32.9998 9L25.4998 15V10.5H20.9998C20.6019 10.5 20.2204 10.658 19.9391 10.9393C19.6578 11.2206 19.4998 11.6022 19.4998 12ZM7.49976 28.5C7.89758 28.5 8.27911 28.342 8.56042 28.0607C8.84172 27.7794 8.99976 27.3978 8.99976 27C8.99976 26.6022 8.84172 26.2206 8.56042 25.9393C8.27911 25.658 7.89758 25.5 7.49976 25.5C7.10193 25.5 6.7204 25.658 6.4391 25.9393C6.15779 26.2206 5.99976 26.6022 5.99976 27C5.99976 27.3978 6.15779 27.7794 6.4391 28.0607C6.7204 28.342 7.10193 28.5 7.49976 28.5Z" fill="white"/>
</svg>
