<svg width="36" height="36" viewBox="0 0 36 36" fill="none" xmlns="http://www.w3.org/2000/svg">
<path d="M18 33C9.7155 33 3 26.2845 3 18C3 9.7155 9.7155 3 18 3C26.2845 3 33 9.7155 33 18C33 26.2845 26.2845 33 18 33ZM18 30C21.1826 30 24.2348 28.7357 26.4853 26.4853C28.7357 24.2348 30 21.1826 30 18C30 14.8174 28.7357 11.7652 26.4853 9.51472C24.2348 7.26428 21.1826 6 18 6C14.8174 6 11.7652 7.26428 9.51472 9.51472C7.26428 11.7652 6 14.8174 6 18C6 21.1826 7.26428 24.2348 9.51472 26.4853C11.7652 28.7357 14.8174 30 18 30ZM10.5 13.5L15 8.25L19.5 13.5H16.5V19.5H13.5V13.5H10.5ZM25.5 22.5L21 27.75L16.5 22.5H19.5V16.5H22.5V22.5H25.5Z" fill="#4E558E"/>
<path d="M18 33C9.7155 33 3 26.2845 3 18C3 9.7155 9.7155 3 18 3C26.2845 3 33 9.7155 33 18C33 26.2845 26.2845 33 18 33ZM18 30C21.1826 30 24.2348 28.7357 26.4853 26.4853C28.7357 24.2348 30 21.1826 30 18C30 14.8174 28.7357 11.7652 26.4853 9.51472C24.2348 7.26428 21.1826 6 18 6C14.8174 6 11.7652 7.26428 9.51472 9.51472C7.26428 11.7652 6 14.8174 6 18C6 21.1826 7.26428 24.2348 9.51472 26.4853C11.7652 28.7357 14.8174 30 18 30ZM10.5 13.5L15 8.25L19.5 13.5H16.5V19.5H13.5V13.5H10.5ZM25.5 22.5L21 27.75L16.5 22.5H19.5V16.5H22.5V22.5H25.5Z" fill="#3C55A5"/>
</svg>
